PathFileType	4	(X/Y/Z)	/home/mitkof6/dev/sinergia_osimrl/data/02761/02761_PRE/experimental_data/task.trc
DataRate	CameraRate	NumFrames	NumMarkers	Units	OrigDataRate	OrigDataStartFrame	OrigNumFrames
100.000000	100.000000	5	43	mm	100.000000	309	354
Frame#	Time	C7			CLAV			LANK			LASI			LBHD			LELB			LFHD			LFIN			LHEE			LKNE			LMED			LMET			LMIF			LPSI			LSHO			LTHI			LTIB			LTOE			LTTU			LWRA			LWRB			RANK			RASI			RBAK			RBHD			RELB			RFHD			RFIN			RHEE			RKNE			RMED			RMET			RMIF			RPSI			RSHO			RTHI			RTIB			RTOE			RTTU			RWRA			RWRB			STRN			T10			
		X1	Y1	Z1	X2	Y2	Z2	X3	Y3	Z3	X4	Y4	Z4	X5	Y5	Z5	X6	Y6	Z6	X7	Y7	Z7	X8	Y8	Z8	X9	Y9	Z9	X10	Y10	Z10	X11	Y11	Z11	X12	Y12	Z12	X13	Y13	Z13	X14	Y14	Z14	X15	Y15	Z15	X16	Y16	Z16	X17	Y17	Z17	X18	Y18	Z18	X19	Y19	Z19	X20	Y20	Z20	X21	Y21	Z21	X22	Y22	Z22	X23	Y23	Z23	X24	Y24	Z24	X25	Y25	Z25	X26	Y26	Z26	X27	Y27	Z27	X28	Y28	Z28	X29	Y29	Z29	X30	Y30	Z30	X31	Y31	Z31	X32	Y32	Z32	X33	Y33	Z33	X34	Y34	Z34	X35	Y35	Z35	X36	Y36	Z36	X37	Y37	Z37	X38	Y38	Z38	X39	Y39	Z39	X40	Y40	Z40	X41	Y41	Z41	X42	Y42	Z42	X43	Y43	Z43	

310	3.09	1487.531372070312	1193.109497070312	-341.9389343261716	1599.500122070312	1120.103149414062	-339.8784484863279	1570.654296875	52.38653564453134	-385.9355773925781	1560.3046875	795.4331054687501	-422.2427978515623	1507.979370117188	1316.527099609375	-386.9341125488278	1533.753662109375	908.2603149414064	-541.561584472656	1634.594360351562	1345.896850585938	-388.7188415527341	1637.243041992188	654.0709228515626	-616.0427856445311	1518.001342773438	31.20841789245613	-352.4678344726562	1618.5361328125	425.2505493164064	-409.3676452636718	1576.308471679688	59.78805160522468	-310.3598937988281	1660.238159179688	22.17983627319345	-397.1551818847656	1630.311889648438	57.52142333984383	-344.3072509765625	1423.375610351562	846.0261230468751	-378.1253662109373	1532.794555664062	1164.968505859375	-470.9272155761716	1576.984008789062	547.8899536132814	-478.7218933105468	1600.776733398438	230.3834381103517	-451.8689880371093	1684.149780273438	34.78874206542977	-357.8768005371094	1661.273071289062	355.3483276367188	-340.4011840820312	1586.15087890625	687.3369140625001	-585.6576538085936	1647.19580078125	703.2816772460939	-568.2343139648436	1173.05712890625	142.5272674560547	-261.3797302246093	1543.575317382812	794.2788696289062	-226.7861022949217	1447.219482421875	1075.3720703125	-248.7835845947263	1484.223754882812	1289.060424804688	-280.5356750488278	1513.547241210938	935.5857543945312	-135.0166168212889	1626.701782226562	1324.50927734375	-265.1770324707028	1722.31689453125	800.2076416015625	-81.63665008544903	1143.609619140625	167.2700653076172	-313.3437194824218	1445.979248046875	409.5194396972657	-220.6208953857421	1216.109008789062	137.568344116211	-323.8609313964843	1193.219848632812	42.42383956909185	-246.9150848388672	1228.345336914062	110.5750198364258	-278.6400451660156	1417.5791015625	850.4951171875001	-291.3136901855467	1521.82568359375	1186.275268554688	-221.0961608886716	1480.835693359375	540.6577758789062	-161.903839111328	1284.188110351562	272.6234130859376	-195.0030059814453	1223.547241210938	38.47677230834967	-275.412109375	1445.121826171875	318.1452026367188	-265.1106262207031	1661.747192382812	810.693603515625	-82.50946044921857	1689.609985351562	826.07470703125	-135.6331329345701	1623.354125976562	981.8455200195314	-335.4247741699216	1447.545654296875	945.2090454101564	-341.9715881347654	
311	3.1	1496.948608398438	1193.628295898438	-342.6583251953122	1609.196533203125	1121.247802734375	-340.5856018066404	1571.130859375	52.48652267456063	-385.8466491699219	1572.00341796875	796.1829223632814	-421.7747802734373	1517.507446289062	1317.315307617188	-387.9304199218747	1544.189697265625	908.6211547851564	-541.6710815429685	1644.417358398438	1346.458862304688	-389.656311035156	1651.424438476562	655.5301513671876	-614.8251953124999	1518.239624023438	31.68032646179207	-352.6298828125	1625.45263671875	424.0695800781251	-409.136016845703	1576.684814453125	59.70077514648445	-310.2719421386719	1660.54833984375	22.26139068603525	-397.2593383789062	1630.74658203125	57.1827697753907	-344.1142272949219	1435.934936523438	846.5728149414064	-378.7470092773436	1542.146606445312	1165.523559570312	-471.5670166015622	1586.080810546875	547.6079101562501	-478.6893310546874	1605.2275390625	229.6062011718751	-451.6761779785156	1684.657592773438	34.65439605712898	-357.8519897460938	1666.811279296875	353.5253295898438	-339.6487121582031	1599.766235351562	688.3938598632814	-584.9434814453124	1660.55712890625	705.1639404296876	-567.1849365234374	1186.411987304688	147.2992553710938	-257.8079223632812	1554.520874023438	794.8910522460938	-226.6746673583983	1456.915771484375	1076.115844726562	-249.354553222656	1493.74609375	1290.115478515625	-281.4860229492185	1521.904052734375	935.88623046875	-137.6297607421873	1636.638427734375	1325.256713867188	-266.2229309082028	1729.274658203125	798.41650390625	-82.79953765869124	1158.14404296875	174.5341949462891	-309.3758850097656	1462.425537109375	409.0151062011719	-217.2888793945312	1228.79248046875	141.252426147461	-320.3566284179687	1201.2109375	45.99634552001959	-245.3263397216797	1240.140869140625	113.0268630981446	-275.8028869628906	1428.76171875	850.6708374023439	-292.0919799804686	1531.398071289062	1187.121948242188	-221.7160644531247	1495.312866210938	541.1544189453125	-159.8534851074218	1299.632202148438	274.6901550292969	-191.4143676757812	1230.234008789062	40.26445770263678	-274.5028686523438	1461.430541992188	317.4510803222657	-261.1303710937499	1668.962524414062	810.0480346679688	-83.81079864501935	1696.898071289062	823.7600708007812	-137.2891235351561	1633.887573242188	983.0427856445314	-335.5860900878904	1458.412353515625	945.4656982421876	-342.2948303222654	
312	3.11	1506.365234375	1194.382446289062	-343.2436828613278	1618.828369140625	1122.590209960938	-341.0308532714841	1571.450317382812	52.62415695190438	-385.7634887695312	1583.475219726562	797.0930786132814	-421.3173217773436	1526.953857421875	1318.331298828125	-388.7734680175778	1554.6845703125	909.2267456054689	-541.7160034179685	1654.0810546875	1347.193115234375	-390.5299682617185	1665.593872070312	657.2414550781251	-613.5309448242186	1518.354614257812	32.09997558593758	-352.7406921386719	1631.34228515625	422.9881286621095	-409.0092468261718	1576.959838867188	59.70309829711921	-310.1872863769531	1660.767211914062	22.35426521301278	-397.2586975097656	1631.046142578125	56.96532058715828	-343.9319458007812	1448.072998046875	847.3181762695314	-379.481475830078	1551.620483398438	1166.286499023438	-472.0270690917966	1594.15869140625	547.2509765625001	-478.714385986328	1607.96044921875	229.1044464111329	-451.6099548339843	1685.008056640625	34.60852813720711	-357.8103332519531	1671.389282226562	351.9284973144532	-339.1010742187499	1613.421508789062	689.6873779296876	-584.1700439453124	1673.66455078125	707.2969360351564	-566.1288452148436	1200.641967773438	152.1368103027344	-254.2173156738281	1565.194702148438	795.7122802734375	-226.5397338867186	1466.409545898438	1077.0302734375	-249.987838745117	1503.233032226562	1291.447875976562	-282.2596740722653	1530.176025390625	936.3523559570312	-140.1067504882811	1646.698364257812	1326.2666015625	-267.1699523925778	1736.114501953125	796.618896484375	-84.37018585205061	1173.380493164062	181.4834289550782	-305.4480285644531	1479.123413085938	408.8366088867188	-214.0066986083984	1242.288696289062	145.1099395751954	-316.9086914062499	1210.738403320312	50.08265686035162	-243.312744140625	1252.930419921875	115.934928894043	-272.8490295410156	1439.7216796875	850.9087524414064	-293.0740661621092	1540.773315429688	1188.18310546875	-222.1695861816404	1509.483032226562	541.9718017578125	-157.8085784912108	1315.942016601562	276.4999084472657	-187.7368774414062	1238.72509765625	42.84663391113288	-272.8973083496094	1478.204711914062	317.1448059082032	-257.3487243652343	1676.132690429688	809.6216430664062	-85.32008361816388	1704.047241210938	821.7024536132812	-139.2199401855467	1644.327758789062	984.4362792968751	-335.3844604492185	1469.157470703125	946.0189819335939	-342.682189941406	
313	3.12	1515.825805664062	1195.372802734375	-343.6785583496091	1628.420532226562	1124.092163085938	-341.2062072753904	1571.684448242188	52.80533981323251	-385.7180786132812	1594.649536132812	798.1759033203126	-420.9351501464842	1536.334594726562	1319.523315429688	-389.4550170898435	1565.306640625	910.0551147460939	-541.6925048828123	1663.521850585938	1348.099731445312	-391.3573913574216	1679.71435546875	659.1632080078126	-612.1864624023436	1518.382690429688	32.5295944213868	-352.8209228515625	1636.316772460938	422.1293029785157	-409.0107116699218	1577.161010742188	59.81621170043952	-310.1421508789062	1660.91064453125	22.4247589111329	-397.2104797363281	1631.250610351562	56.84582138061531	-343.7947692871094	1459.672973632812	848.2653198242189	-380.2254638671873	1561.233642578125	1167.230224609375	-472.307922363281	1601.39892578125	546.9684448242189	-478.8099975585936	1609.318603515625	228.8755798339845	-451.7174377441406	1685.23876953125	34.59784317016609	-357.7744750976562	1675.175170898438	350.6277770996094	-338.8642272949218	1627.022338867188	691.1823120117189	-583.3497314453124	1686.541625976562	709.6241455078126	-565.0661621093749	1215.576171875	157.0349578857422	-250.7381286621093	1575.606567382812	796.754150390625	-226.4239807128905	1475.711791992188	1078.123901367188	-250.6864318847654	1512.709106445312	1292.9951171875	-282.8509216308591	1538.370239257812	936.9586181640625	-142.4068756103514	1656.853271484375	1327.549926757812	-268.0034179687497	1742.840209960938	794.8453979492188	-86.30175781249983	1189.198852539062	187.9617004394532	-301.7932739257812	1496.064331054688	409.0787658691407	-210.8126373291015	1256.63037109375	149.1240386962891	-313.5526123046874	1221.876220703125	54.59062194824224	-240.8123626708984	1266.716552734375	119.348129272461	-269.7217712402344	1450.382446289062	851.2500610351564	-294.1245727539061	1549.969848632812	1189.428100585938	-222.4542999267576	1523.259521484375	543.1355590820312	-155.8047637939452	1332.955078125	278.2819824218751	-184.0828552246093	1249.22509765625	46.16278839111334	-270.4431762695312	1495.432983398438	317.2730407714844	-253.7869262695312	1683.265991210938	809.3898315429688	-87.0274124145506	1711.091552734375	819.97265625	-141.3803558349608	1654.682739257812	986.0108642578126	-334.8559875488279	1479.74462890625	946.8596801757814	-343.0899353027341	
314	3.13	1525.369750976562	1196.592041015625	-343.9440917968747	1637.996215820312	1125.712036132812	-341.1142883300779	1571.920043945312	53.03765869140634	-385.7356567382812	1605.480834960938	799.4310302734376	-420.6725158691405	1545.665283203125	1320.830444335938	-389.971740722656	1576.102905273438	911.0916748046876	-541.5980224609373	1672.704467773438	1349.173950195312	-392.140686035156	1693.76171875	661.2666015625001	-610.8089599609374	1518.365478515625	33.02480697631844	-352.8974304199219	1640.485107421875	421.5653686523439	-409.1796264648436	1577.314819335938	60.05747985839851	-310.1704711914062	1661.005126953125	22.46122932434091	-397.1607971191406	1631.40087890625	56.81233596801766	-343.7300109863281	1470.713134765625	849.4291381835939	-380.8995666503905	1571.00146484375	1168.334594726562	-472.4136962890622	1607.978515625	546.8994140625001	-479.0024108886718	1609.792602539062	228.8534240722657	-452.0116577148437	1685.392944335938	34.59360122680672	-357.7609252929688	1678.334716796875	349.6468811035157	-339.0129394531249	1640.510620117188	692.8493041992189	-582.4829711914061	1699.234008789062	712.1007080078126	-563.9794311523436	1231.115112304688	161.9362487792969	-247.4764862060547	1585.76953125	798.0107421875	-226.3582153320311	1484.842407226562	1079.40625	-251.4301452636716	1522.193725585938	1294.685180664062	-283.260803222656	1546.493286132812	937.6945190429688	-144.5003814697264	1667.036010742188	1329.095336914062	-268.7118530273435	1749.439208984375	793.1312255859375	-88.52746582031233	1205.537963867188	193.8102111816407	-298.5946044921874	1513.262573242188	409.8028259277344	-207.715362548828	1271.874145507812	153.201400756836	-310.3079528808593	1234.656982421875	59.37717819213872	-237.7918701171875	1281.519165039062	123.2057647705079	-266.40283203125	1460.71435546875	851.7611694335939	-295.1180419921873	1559.017944335938	1190.822875976562	-222.5763702392576	1536.58984375	544.6361083984375	-153.8707122802733	1350.497314453125	280.2893676757813	-180.5751953124999	1261.810791015625	50.04468536376959	-267.0830078125	1513.137939453125	317.8719177246094	-250.4084320068359	1690.349975585938	809.314697265625	-88.91629791259747	1718.051147460938	818.6240844726562	-143.709030151367	1664.954833984375	987.7407836914064	-334.0535888671873	1490.148559570312	947.9592285156251	-343.4764709472654	
